<svg xmlns="http://www.w3.org/2000/svg" width="16px" height="16px" viewBox="0 0 2048 2048">
	<circle fill-opacity="0.8" r="1024" cx="1024" cy="1024" fill="#e67e22" style="stroke: rgb(211, 84, 0); stroke-width: 25.6px; stroke-opacity: 1;"></circle>
	<g transform="scale(0.68)"><path fill-opacity="1" transform="translate(267.29, 2231.84) rotate(180) scale(-1, 1)" fill="#000000" d="M1104 123q-81 -75 -182.5 -113.5t-219.5 -38.5q-284 0 -442 203.5t-158 570.5q0 366 160 570.5t445 204.5q94 0 180 -26.5t166 -80.5v-207q-81 77 -166 113.5t-180 36.5q-197 0 -295.5 -152.5t-98.5 -458.5q0 -311 95.5 -460.5t293.5 -149.5q67 0 117.5 15.5t91.5 48.5 v401h-217v166h410v-643z"></path><path fill-opacity="1" transform="translate(1500.29, 2231.84) rotate(180) scale(-1, 1)" fill="#000000" d="M215 1493h203v-1323h721v-170h-924v1493z"></path></g>
</svg>