<svg xmlns="http://www.w3.org/2000/svg" width="16px" height="16px" viewBox="0 0 2048 2048">
    <circle fill-opacity="0.8" r="896" cx="1024" cy="1024" fill="#000000"
            style="stroke: rgb(242, 66, 7); stroke-width: 128px; stroke-opacity: 1;"></circle>
    <g transform="scale(0.77)">
        <path fill-opacity="0.8" transform="translate(696.32, 2068) rotate(180) scale(-1, 1)" fill="#f7f7f7"
              d="M1012 1442v-205q-92 59 -184.5 89t-186.5 30q-143 0 -226 -66.5t-83 -179.5q0 -99 54.5 -151t203.5 -87l106 -24q210 -49 306 -154t96 -286q0 -213 -132 -325t-384 -112q-105 0 -211 22.5t-213 67.5v215q115 -73 217.5 -107t206.5 -34q153 0 238 68.5t85 191.5 q0 112 -58.5 171t-203.5 91l-108 25q-208 47 -302 142t-94 255q0 200 134.5 320.5t357.5 120.5q86 0 181 -19.5t200 -58.5z"></path>
    </g>
</svg>